<svg width="40" height="40" viewBox="0 0 40 40" fill="none" xmlns="http://www.w3.org/2000/svg">
<path d="M8.31325 19.0443C8.31321 18.8209 8.35729 18.5997 8.44296 18.3934C8.52863 18.1871 8.65419 17.9998 8.81245 17.8422C8.9707 17.6846 9.15852 17.5598 9.36512 17.475C9.57172 17.3903 9.79302 17.3472 10.0163 17.3482L12.8398 17.3575C13.29 17.3575 13.7218 17.5364 14.0401 17.8548C14.3585 18.1733 14.5373 18.6052 14.5373 19.0556V29.7363C14.8554 29.642 15.2633 29.5415 15.7102 29.4366C16.0205 29.3635 16.297 29.1878 16.4949 28.9379C16.6929 28.6879 16.8006 28.3784 16.8007 28.0595V14.8111C16.8007 14.3606 16.9795 13.9286 17.2978 13.6101C17.6162 13.2916 18.0479 13.1126 18.4982 13.1125H21.3274C21.7777 13.1126 22.2094 13.2916 22.5278 13.6102C22.8461 13.9287 23.0249 14.3606 23.0249 14.8111V27.1074C23.0249 27.1074 23.7329 26.8206 24.4231 26.5292C24.6794 26.4208 24.8981 26.2392 25.0519 26.0072C25.2058 25.7753 25.2879 25.5031 25.2881 25.2248V10.565C25.2881 10.342 25.332 10.1212 25.4173 9.91522C25.5026 9.70921 25.6276 9.52201 25.7852 9.36433C25.9428 9.20664 26.1299 9.08155 26.3358 8.99621C26.5417 8.91086 26.7625 8.86692 26.9854 8.86691H29.8146C30.2648 8.86691 30.6966 9.04581 31.015 9.36426C31.3333 9.68272 31.5122 10.1146 31.5122 10.565V22.6365C33.965 20.8583 36.4508 18.7194 38.4235 16.1477C38.7097 15.7744 38.8991 15.336 38.9748 14.8717C39.0504 14.4073 39.01 13.9315 38.8572 13.4866C37.5224 9.59524 35.0188 6.21132 31.6885 3.7975C28.3583 1.38367 24.364 0.057767 20.2519 0.00108077C9.16328 -0.147932 -0.000871251 8.90709 0.000218018 20.0011C-0.0106697 23.5117 0.905232 26.9628 2.65531 30.0057C2.89666 30.4219 3.25173 30.7605 3.6788 30.9818C4.10587 31.2032 4.58721 31.298 5.06627 31.2551C5.60151 31.208 6.26787 31.1414 7.06004 31.0484C7.40484 31.0091 7.72316 30.8444 7.95439 30.5855C8.18561 30.3266 8.31358 29.9917 8.31393 29.6446V19.0443" fill="#C1C1C1"/>
<path d="M8.25169 36.1739C11.2338 38.3441 14.758 39.6468 18.4342 39.9377C22.1105 40.2287 25.7956 39.4967 29.0818 37.8226C32.368 36.1485 35.1272 33.5977 37.0541 30.4522C38.9811 27.3068 40.0007 23.6894 40.0001 20.0003C40.0001 19.5398 39.9787 19.0845 39.9479 18.6316C32.6441 29.5283 19.1584 34.6231 8.25156 36.1743" fill="#C1C1C1"/>
</svg>
